External Loads File
version=1
nRows=54
nColumns=13
Range=5.000000e-03-10 seconds
endheader
time 	forceRightX 	forceRightY 	forceRightZ 	pointRightX 	pointRightY 	pointRightZ 	forceLeftX 	forceLeftY 	forceLeftZ 	pointLeftX 	pointLeftY 	pointLeftZ 		
0.005000 -19.609045 158.622063 -0.000000 0.325074 0.327000 -0.106112 42.289876 178.907592 -0.000000 0.015071 0.314858 -0.343997
0.010000 -18.945791 158.784113 -0.000000 0.325075 0.327053 -0.106100 40.898006 179.315394 -0.000000 0.015072 0.314787 -0.343981
0.015000 -18.327341 158.940774 -0.000000 0.325085 0.327120 -0.106103 39.599919 179.668975 -0.000000 0.015092 0.314728 -0.343992
0.020000 -17.779985 159.087262 -0.000000 0.325090 0.327185 -0.106093 38.490822 179.924156 -0.000000 0.015105 0.314670 -0.343994
0.025000 -17.817359 159.160430 -0.000000 0.325074 0.327287 -0.105993 37.005162 180.185009 -0.000000 0.014941 0.313694 -0.344105
0.030000 -17.473506 159.262587 -0.000000 0.325080 0.327338 -0.105969 36.171583 180.234772 -0.000000 0.014914 0.313481 -0.344077
0.035000 -17.140292 159.352654 -0.000000 0.325096 0.327414 -0.105985 35.478112 180.204877 -0.000000 0.014925 0.313350 -0.344046
0.040000 -16.831335 159.440398 -0.000000 0.325098 0.327478 -0.105981 34.885047 180.143882 -0.000000 0.014919 0.313238 -0.344047
0.045000 -16.542423 159.534775 -0.000000 0.325076 0.327528 -0.105961 34.407855 180.085574 -0.000000 0.014930 0.313157 -0.344055
0.050000 -16.313816 159.630296 -0.000000 0.325079 0.327593 -0.105984 34.032227 180.055925 -0.000000 0.014927 0.313061 -0.344066
0.055000 -16.139859 159.719925 -0.000000 0.325064 0.327657 -0.105988 33.815307 180.055919 -0.000000 0.014937 0.312986 -0.344052
0.060000 -16.053032 159.793272 -0.000000 0.325056 0.327719 -0.105988 33.775416 180.085678 -0.000000 0.014942 0.312907 -0.344049
0.065000 -16.048614 159.847196 -0.000000 0.325042 0.327788 -0.105996 33.947712 180.136145 -0.000000 0.014935 0.312834 -0.344055
0.070000 -16.120123 159.880813 -0.000000 0.325026 0.327885 -0.105996 34.313303 180.199828 -0.000000 0.014949 0.312755 -0.344056
0.075000 -16.188114 159.899218 -0.000000 0.325009 0.327957 -0.105736 34.869037 180.253649 -0.000000 0.014942 0.312702 -0.344051
0.080000 -16.285510 159.893002 -0.000000 0.324990 0.328032 -0.105728 35.464436 180.297731 -0.000000 0.014933 0.312608 -0.344045
0.085000 -16.371168 159.858245 -0.000000 0.324979 0.328113 -0.105726 36.078364 180.315595 -0.000000 0.014938 0.312562 -0.344032
0.090000 -16.493300 159.783113 -0.000000 0.324971 0.328168 -0.105722 36.647277 180.310437 -0.000000 0.014944 0.312503 -0.344028
0.095000 -16.720196 159.659425 -0.000000 0.324967 0.328236 -0.105702 37.108050 180.293482 -0.000000 0.014943 0.312407 -0.344011
0.100000 -17.043273 159.493869 -0.000000 0.324963 0.328329 -0.105687 37.478723 180.263459 -0.000000 0.014940 0.312341 -0.344007
0.105000 -17.445513 159.297754 -0.000000 0.324968 0.328396 -0.105692 37.775427 180.219363 -0.000000 0.014932 0.312273 -0.344024
0.110000 -17.912210 159.088116 -0.000000 0.324974 0.328480 -0.105679 37.997081 180.165342 -0.000000 0.014932 0.312213 -0.344011
0.115000 -18.387604 158.897045 -0.000000 0.324992 0.328561 -0.105699 38.168400 180.107372 -0.000000 0.014937 0.312139 -0.344001
0.120000 -18.791297 158.759869 -0.000000 0.325008 0.328620 -0.105685 38.337608 180.056285 -0.000000 0.014939 0.312077 -0.343991
0.125000 -19.117858 158.687449 -0.000000 0.325025 0.328690 -0.105681 38.491432 180.044320 -0.000000 0.014934 0.312009 -0.344000
0.130000 -19.343073 158.676081 -0.000000 0.325068 0.328741 -0.105669 38.662150 180.091710 -0.000000 0.014945 0.311948 -0.343999
0.135000 -19.501474 158.706153 -0.000000 0.325081 0.328797 -0.105675 38.820274 180.212122 -0.000000 0.014939 0.311892 -0.343970
0.140000 -19.634070 158.754420 -0.000000 0.325095 0.328888 -0.105672 38.911898 180.400276 -0.000000 0.014944 0.311827 -0.343968
0.145000 -19.710209 158.810827 -0.000000 0.325108 0.328940 -0.105668 38.937867 180.627618 -0.000000 0.014951 0.311721 -0.343972
0.150000 -19.716599 158.871419 -0.000000 0.325128 0.329017 -0.105657 38.876190 180.870643 -0.000000 0.014959 0.311631 -0.343957
0.155000 -19.659315 158.931228 -0.000000 0.325145 0.329094 -0.105671 38.711635 181.109082 -0.000000 0.014982 0.311534 -0.343958
0.160000 -19.565512 158.976579 -0.000000 0.325158 0.329190 -0.105684 38.433920 181.329739 -0.000000 0.014981 0.311428 -0.343983
0.165000 -19.438660 158.995954 -0.000000 0.325169 0.329296 -0.105705 38.061428 181.520710 -0.000000 0.014986 0.311308 -0.343959
0.170000 -19.251558 158.990680 -0.000000 0.325184 0.329387 -0.105689 37.635920 181.666358 -0.000000 0.014997 0.311192 -0.343969
0.175000 -19.042133 158.961645 -0.000000 0.325188 0.329498 -0.105693 37.140454 181.763825 -0.000000 0.015010 0.311069 -0.343960
0.180000 -18.846647 158.909456 -0.000000 0.325206 0.329616 -0.105683 36.598575 181.813223 -0.000000 0.015009 0.310940 -0.343967
0.185000 -18.706113 158.834346 -0.000000 0.325201 0.329731 -0.105682 36.037532 181.832006 -0.000000 0.015018 0.310802 -0.343983
0.190000 -18.614772 158.748511 -0.000000 0.325201 0.329852 -0.105695 35.511257 181.841157 -0.000000 0.015038 0.310689 -0.344007
0.195000 -18.585980 158.664934 -0.000000 0.325217 0.330001 -0.105704 35.023813 181.866860 -0.000000 0.015040 0.310561 -0.343973
0.200000 -18.573608 158.596428 -0.000000 0.325214 0.330164 -0.105724 34.624310 181.914666 -0.000000 0.015056 0.310445 -0.343983
0.205000 -18.584668 158.541784 -0.000000 0.325232 0.330325 -0.105737 34.286150 181.989827 -0.000000 0.015065 0.310263 -0.343995
0.210000 -18.557479 158.507519 -0.000000 0.325220 0.330476 -0.105742 34.065799 182.067718 -0.000000 0.015075 0.310112 -0.344003
0.215000 -18.589185 158.484929 -0.000000 0.325213 0.330698 -0.105728 33.839475 182.151327 -0.000000 0.015076 0.309902 -0.343991
0.220000 -18.614476 158.487443 -0.000000 0.325199 0.330935 -0.105725 33.652538 182.212888 -0.000000 0.015084 0.309715 -0.343978
0.225000 -18.631310 158.522163 -0.000000 0.325180 0.331157 -0.105703 33.461466 182.242636 -0.000000 0.015081 0.309515 -0.343971
0.230000 -18.630782 158.594462 -0.000000 0.325174 0.331379 -0.105718 33.242119 182.235745 -0.000000 0.015071 0.309296 -0.343967
0.235000 -18.612865 158.704071 -0.000000 0.325146 0.331598 -0.105701 32.998651 182.202541 -0.000000 0.015076 0.309022 -0.343951
0.240000 -18.559759 158.847238 -0.000000 0.325143 0.331824 -0.105740 32.788690 182.159193 -0.000000 0.015102 0.308711 -0.343973
0.245000 -18.419913 159.017181 -0.000000 0.325125 0.332055 -0.105733 32.715349 182.113628 -0.000000 0.015107 0.308443 -0.344024
0.250000 -18.238845 159.189838 -0.000000 0.325109 0.332350 -0.105750 32.771864 182.087004 -0.000000 0.015107 0.308199 -0.344029
0.255000 -18.034908 159.342701 -0.000000 0.325096 0.332649 -0.105750 32.988747 182.087537 -0.000000 0.015099 0.307943 -0.344027
0.260000 -17.861750 159.452727 -0.000000 0.325079 0.332962 -0.105732 33.346561 182.122656 -0.000000 0.015080 0.307667 -0.344042
0.265000 -17.759484 159.504275 -0.000000 0.325092 0.333314 -0.105711 33.812030 182.189320 -0.000000 0.015054 0.307390 -0.344007
0.270000 -17.734209 159.490345 -0.000000 0.325095 0.333611 -0.105711 34.345736 182.275867 -0.000000 0.015038 0.307052 -0.344025
